<svg width="70" height="70" viewBox="0 0 70 70" fill="none" xmlns="http://www.w3.org/2000/svg">
<path d="M26.0204 39.3132L25.6668 38.9596L24.9597 39.6667L25.3133 40.0203L25.6668 39.6667L26.0204 39.3132ZM35.0002 49L34.6466 49.3536L35.0002 49.7072L35.3537 49.3536L35.0002 49ZM44.6871 40.0203L45.0406 39.6667L44.3335 38.9596L43.9799 39.3132L44.3335 39.6667L44.6871 40.0203ZM2.3335 35H1.8335H2.3335ZM35.0002 2.33338V1.83338V2.33338ZM35.0002 67.6667V67.1667V67.6667ZM67.6668 35H67.1668H67.6668ZM25.6668 39.6667L25.3133 40.0203L34.6466 49.3536L35.0002 49L35.3537 48.6465L26.0204 39.3132L25.6668 39.6667ZM35.0002 49L35.3537 49.3536L44.6871 40.0203L44.3335 39.6667L43.9799 39.3132L34.6466 48.6465L35.0002 49ZM35.0002 49H35.5002V18.6667H35.0002H34.5002V49H35.0002ZM2.3335 35H2.8335C2.8335 17.2349 17.235 2.83338 35.0002 2.83338V2.33338V1.83338C16.6827 1.83338 1.8335 16.6826 1.8335 35H2.3335ZM35.0002 67.6667V67.1667C17.235 67.1667 2.8335 52.7652 2.8335 35H2.3335H1.8335C1.8335 53.3175 16.6827 68.1667 35.0002 68.1667V67.6667ZM67.6668 35H67.1668C67.1668 52.7652 52.7653 67.1667 35.0002 67.1667V67.6667V68.1667C53.3176 68.1667 68.1668 53.3175 68.1668 35H67.6668ZM67.6668 35H68.1668C68.1668 16.6826 53.3176 1.83338 35.0002 1.83338V2.33338V2.83338C52.7653 2.83338 67.1668 17.2349 67.1668 35H67.6668Z" fill="white"/>
</svg>
